<svg width="3541" height="1000" viewBox="0 0 3541 1000" fill="none" xmlns="http://www.w3.org/2000/svg">
<path d="M1049 48.3618H1201.48C1231.29 48.3618 1257.19 52.797 1279.19 61.6675C1301.19 70.5379 1318.13 83.6662 1330.02 101.052C1342.08 118.438 1348.11 139.905 1348.11 165.452C1348.11 187.628 1344.65 206.167 1337.73 221.069C1330.81 235.972 1321.15 248.302 1308.73 258.059C1296.49 267.639 1282.2 275.534 1265.88 281.743L1235.28 299.041H1107.28L1106.75 226.924H1201.48C1213.37 226.924 1223.22 224.795 1231.02 220.537C1238.83 216.279 1244.68 210.247 1248.58 202.441C1252.67 194.458 1254.71 184.967 1254.71 173.967C1254.71 162.791 1252.67 153.21 1248.58 145.227C1244.5 137.244 1238.47 131.123 1230.49 126.865C1222.68 122.607 1213.01 120.479 1201.48 120.479H1142.41V435.823H1049V48.3618ZM1261.09 435.823L1175.4 264.446L1274.4 263.914L1361.15 431.831V435.823H1261.09Z" fill="#cb2323"/>
<path d="M1539.71 441.145C1516.29 441.145 1495.36 437.508 1476.91 430.234C1458.46 422.783 1442.85 412.582 1430.07 399.631C1417.48 386.681 1407.81 371.778 1401.07 354.924C1394.5 338.07 1391.22 320.241 1391.22 301.436V291.323C1391.22 270.212 1394.15 250.697 1400 232.778C1405.86 214.683 1414.55 198.893 1426.08 185.41C1437.61 171.927 1452.07 161.46 1469.46 154.009C1486.85 146.38 1507.07 142.566 1530.13 142.566C1550.53 142.566 1568.81 145.848 1584.95 152.412C1601.1 158.976 1614.76 168.379 1625.93 180.62C1637.29 192.861 1645.89 207.675 1651.75 225.061C1657.78 242.447 1660.79 261.962 1660.79 283.606V320.063H1425.55V263.914H1573.24V256.995C1573.42 247.415 1571.74 239.254 1568.19 232.512C1564.82 225.771 1559.85 220.626 1553.28 217.078C1546.72 213.529 1538.74 211.755 1529.33 211.755C1519.58 211.755 1511.5 213.884 1505.12 218.142C1498.91 222.4 1494.03 228.254 1490.48 235.706C1487.11 242.979 1484.72 251.406 1483.3 260.986C1481.88 270.566 1481.17 280.679 1481.17 291.323V301.436C1481.17 312.08 1482.59 321.749 1485.43 330.442C1488.44 339.135 1492.7 346.586 1498.2 352.795C1503.88 358.827 1510.62 363.529 1518.42 366.899C1526.41 370.27 1535.46 371.956 1545.57 371.956C1557.81 371.956 1569.87 369.649 1581.76 365.037C1593.65 360.424 1603.85 352.795 1612.36 342.151L1653.08 390.583C1647.22 398.922 1638.88 406.994 1628.06 414.8C1617.42 422.606 1604.64 428.993 1589.74 433.96C1574.84 438.75 1558.16 441.145 1539.71 441.145Z" fill="#cb2323"/>
<path d="M1787.73 203.24V546.526H1698.05V147.888H1781.61L1787.73 203.24ZM1964.43 288.396V293.984C1964.43 314.919 1962.03 334.345 1957.24 352.263C1952.45 370.181 1945.36 385.793 1935.96 399.099C1926.55 412.405 1914.84 422.783 1900.83 430.234C1886.99 437.508 1870.94 441.145 1852.66 441.145C1835.45 441.145 1820.64 437.331 1808.22 429.702C1795.8 422.074 1785.42 411.518 1777.09 398.035C1768.75 384.552 1762.01 369.117 1756.86 351.731C1751.72 334.345 1747.64 315.983 1744.62 296.646V289.46C1747.64 268.704 1751.72 249.455 1756.86 231.714C1762.01 213.796 1768.75 198.184 1777.09 184.878C1785.42 171.572 1795.71 161.194 1807.96 153.743C1820.37 146.292 1835.19 142.566 1852.4 142.566C1870.67 142.566 1886.72 146.025 1900.56 152.944C1914.58 159.863 1926.29 169.798 1935.69 182.749C1945.27 195.522 1952.45 210.868 1957.24 228.787C1962.03 246.705 1964.43 266.575 1964.43 288.396ZM1874.75 293.984V288.396C1874.75 277.219 1873.95 267.018 1872.35 257.793C1870.76 248.39 1868.19 240.229 1864.64 233.311C1861.27 226.392 1856.74 221.069 1851.07 217.344C1845.39 213.618 1838.38 211.755 1830.04 211.755C1820.46 211.755 1812.39 213.263 1805.83 216.279C1799.44 219.118 1794.29 223.553 1790.39 229.585C1786.67 235.439 1784 242.802 1782.41 251.672C1780.99 260.365 1780.37 270.566 1780.55 282.275V304.097C1780.19 317.58 1781.52 329.466 1784.54 339.756C1787.55 349.868 1792.79 357.763 1800.24 363.44C1807.69 369.117 1817.8 371.956 1830.57 371.956C1839.09 371.956 1846.19 370.004 1851.86 366.101C1857.54 362.021 1862.06 356.432 1865.44 349.336C1868.81 342.062 1871.2 333.724 1872.62 324.321C1874.04 314.919 1874.75 304.806 1874.75 293.984Z" fill="#cb2323"/>
<path d="M2153.9 363.44V244.753C2153.9 236.593 2152.75 229.585 2150.44 223.73C2148.14 217.876 2144.5 213.352 2139.53 210.159C2134.56 206.788 2127.91 205.103 2119.57 205.103C2112.83 205.103 2107.07 206.256 2102.28 208.562C2097.49 210.868 2093.85 214.328 2091.37 218.94C2088.88 223.553 2087.64 229.408 2087.64 236.504H1997.96C1997.96 223.198 2000.89 210.868 2006.74 199.514C2012.77 187.983 2021.29 177.959 2032.29 169.443C2043.47 160.928 2056.77 154.364 2072.21 149.751C2087.82 144.961 2105.2 142.566 2124.36 142.566C2147.25 142.566 2167.65 146.38 2185.57 154.009C2203.67 161.637 2217.95 173.08 2228.41 188.337C2238.88 203.417 2244.11 222.4 2244.11 245.286V363.174C2244.11 381.979 2245.18 396.261 2247.31 406.018C2249.44 415.598 2252.45 424.025 2256.36 431.299V435.823H2166.41C2162.15 426.952 2158.96 416.13 2156.83 403.357C2154.88 390.406 2153.9 377.1 2153.9 363.44ZM2164.81 259.922L2165.35 307.822H2125.69C2117.36 307.822 2110.26 308.975 2104.41 311.282C2098.73 313.588 2094.12 316.781 2090.57 320.862C2087.2 324.765 2084.71 329.2 2083.12 334.167C2081.7 339.135 2080.99 344.368 2080.99 349.868C2080.99 355.19 2082.23 359.98 2084.71 364.238C2087.37 368.319 2090.92 371.512 2095.36 373.818C2099.79 376.125 2104.76 377.278 2110.26 377.278C2120.19 377.278 2128.62 375.415 2135.54 371.689C2142.64 367.786 2148.05 363.085 2151.77 357.585C2155.5 352.086 2157.36 346.941 2157.36 342.151L2177.05 378.875C2173.51 385.971 2169.43 393.156 2164.81 400.43C2160.38 407.703 2154.79 414.445 2148.05 420.654C2141.48 426.686 2133.41 431.654 2123.83 435.557C2114.25 439.282 2102.63 441.145 2088.97 441.145C2071.23 441.145 2054.91 437.508 2040.01 430.234C2025.28 422.961 2013.48 412.848 2004.61 399.897C1995.74 386.769 1991.31 371.689 1991.31 354.658C1991.31 339.756 1993.97 326.45 1999.29 314.741C2004.79 303.032 2013.04 293.097 2024.04 284.937C2035.04 276.776 2049.05 270.566 2066.08 266.309C2083.12 262.051 2103.16 259.922 2126.23 259.922H2164.81Z" fill="#cb2323"/>
<path d="M2388.61 147.888V435.823H2298.67V147.888H2388.61ZM2293.35 73.6426C2293.35 60.8691 2297.96 50.402 2307.18 42.2412C2316.41 34.0804 2328.38 30 2343.11 30C2357.83 30 2369.81 34.0804 2379.03 42.2412C2388.26 50.402 2392.87 60.8691 2392.87 73.6426C2392.87 86.416 2388.26 96.8831 2379.03 105.044C2369.81 113.205 2357.83 117.285 2343.11 117.285C2328.38 117.285 2316.41 113.205 2307.18 105.044C2297.96 96.8831 2293.35 86.416 2293.35 73.6426Z" fill="#cb2323"/>
<path d="M2534.44 219.207V435.823H2444.76V147.888H2528.59L2534.44 219.207ZM2619.6 145.759L2618 229.053C2614.46 228.698 2609.67 228.254 2603.63 227.722C2597.6 227.19 2592.55 226.924 2588.47 226.924C2578 226.924 2568.95 228.166 2561.32 230.649C2553.87 232.956 2547.66 236.504 2542.69 241.294C2537.9 245.907 2534.36 251.761 2532.05 258.857C2529.92 265.954 2528.94 274.203 2529.12 283.606L2512.89 272.961C2512.89 253.624 2514.75 236.06 2518.48 220.271C2522.38 204.304 2527.88 190.555 2534.98 179.023C2542.07 167.314 2550.68 158.355 2560.79 152.146C2570.9 145.759 2582.26 142.566 2594.85 142.566C2599.29 142.566 2603.63 142.832 2607.89 143.364C2612.33 143.896 2616.23 144.695 2619.6 145.759Z" fill="#cb2323"/>
<path d="M1203.61 750.363H1107.28V678.246H1203.61C1216.74 678.246 1227.38 676.028 1235.55 671.593C1243.71 667.158 1249.65 661.037 1253.38 653.231C1257.28 645.248 1259.23 636.289 1259.23 626.354C1259.23 615.709 1257.28 605.863 1253.38 596.815C1249.65 587.768 1243.71 580.494 1235.55 574.994C1227.38 569.317 1216.74 566.479 1203.61 566.479H1142.41V881.823H1049V494.362H1203.61C1234.66 494.362 1261.36 500.039 1283.71 511.393C1306.24 522.747 1323.54 538.359 1335.6 558.229C1347.67 577.921 1353.7 600.452 1353.7 625.822C1353.7 650.836 1347.67 672.658 1335.6 691.286C1323.54 709.914 1306.24 724.461 1283.71 734.928C1261.36 745.218 1234.66 750.363 1203.61 750.363Z" fill="#cb2323"/>
<path d="M1490.22 665.207V881.823H1400.54V593.888H1484.36L1490.22 665.207ZM1575.37 591.759L1573.78 675.053C1570.23 674.698 1565.44 674.254 1559.41 673.722C1553.37 673.19 1548.32 672.924 1544.24 672.924C1533.77 672.924 1524.72 674.166 1517.09 676.649C1509.64 678.956 1503.43 682.504 1498.47 687.294C1493.68 691.907 1490.13 697.761 1487.82 704.857C1485.69 711.954 1484.72 720.203 1484.89 729.606L1468.66 718.961C1468.66 699.624 1470.52 682.06 1474.25 666.271C1478.15 650.304 1483.65 636.555 1490.75 625.023C1497.84 613.314 1506.45 604.355 1516.56 598.146C1526.67 591.759 1538.03 588.566 1550.62 588.566C1555.06 588.566 1559.41 588.832 1563.66 589.364C1568.1 589.896 1572 590.695 1575.37 591.759Z" fill="#cb2323"/>
<path d="M1740.36 887.145C1716.94 887.145 1696.01 883.508 1677.56 876.234C1659.11 868.783 1643.5 858.582 1630.72 845.631C1618.13 832.681 1608.46 817.778 1601.72 800.924C1595.15 784.07 1591.87 766.241 1591.87 747.436V737.323C1591.87 716.212 1594.8 696.697 1600.65 678.778C1606.51 660.683 1615.2 644.893 1626.73 631.41C1638.26 617.927 1652.72 607.46 1670.11 600.009C1687.49 592.38 1707.72 588.566 1730.78 588.566C1751.18 588.566 1769.46 591.848 1785.6 598.412C1801.75 604.976 1815.41 614.379 1826.58 626.62C1837.94 638.861 1846.54 653.675 1852.4 671.061C1858.43 688.447 1861.44 707.962 1861.44 729.606V766.063H1626.2V709.914H1773.89V702.995C1774.07 693.415 1772.38 685.254 1768.84 678.512C1765.47 671.771 1760.5 666.626 1753.93 663.078C1747.37 659.529 1739.39 657.755 1729.98 657.755C1720.23 657.755 1712.15 659.884 1705.77 664.142C1699.56 668.4 1694.68 674.254 1691.13 681.706C1687.76 688.979 1685.37 697.406 1683.95 706.986C1682.53 716.566 1681.82 726.679 1681.82 737.323V747.436C1681.82 758.08 1683.24 767.749 1686.08 776.442C1689.09 785.135 1693.35 792.586 1698.85 798.795C1704.53 804.827 1711.27 809.529 1719.07 812.899C1727.06 816.27 1736.1 817.956 1746.22 817.956C1758.46 817.956 1770.52 815.649 1782.41 811.037C1794.29 806.424 1804.5 798.795 1813.01 788.151L1853.73 836.583C1847.87 844.922 1839.53 852.994 1828.71 860.8C1818.07 868.606 1805.29 874.993 1790.39 879.96C1775.49 884.75 1758.81 887.145 1740.36 887.145Z" fill="#cb2323"/>
<path d="M2063.42 815.827V473.073H2153.64V881.823H2072.74L2063.42 815.827ZM1886.72 741.315V735.727C1886.72 713.905 1889.12 694.035 1893.91 676.117C1898.7 658.021 1905.8 642.498 1915.2 629.547C1924.6 616.419 1936.31 606.307 1950.33 599.21C1964.34 592.114 1980.49 588.566 1998.76 588.566C2015.08 588.566 2029.36 592.38 2041.6 600.009C2053.84 607.46 2064.31 617.927 2073 631.41C2081.7 644.893 2088.79 660.683 2094.29 678.778C2099.79 696.697 2103.96 716.034 2106.8 736.791V743.444C2103.96 762.959 2099.79 781.409 2094.29 798.795C2088.79 816.004 2081.7 831.261 2073 844.567C2064.31 857.873 2053.76 868.34 2041.34 875.968C2029.1 883.419 2014.73 887.145 1998.23 887.145C1979.95 887.145 1963.81 883.508 1949.79 876.234C1935.96 868.961 1924.34 858.76 1914.93 845.631C1905.71 832.503 1898.7 817.069 1893.91 799.328C1889.12 781.587 1886.72 762.249 1886.72 741.315ZM1976.4 735.727V741.315C1976.4 752.137 1977.11 762.16 1978.53 771.386C1979.95 780.611 1982.35 788.772 1985.72 795.868C1989.27 802.787 1993.88 808.198 1999.56 812.101C2005.41 816.004 2012.6 817.956 2021.11 817.956C2032.64 817.956 2042.13 815.206 2049.59 809.706C2057.21 804.206 2062.8 796.4 2066.35 786.288C2070.08 776.176 2071.67 764.289 2071.14 750.629V729.606C2071.5 717.897 2070.7 707.607 2068.75 698.737C2066.79 689.689 2063.69 682.149 2059.43 676.117C2055.35 670.085 2050.12 665.561 2043.73 662.545C2037.52 659.352 2030.16 657.755 2021.64 657.755C2013.31 657.755 2006.21 659.707 2000.35 663.61C1994.68 667.513 1990.07 673.013 1986.52 680.109C1982.97 687.028 1980.4 695.277 1978.8 704.857C1977.2 714.26 1976.4 724.55 1976.4 735.727Z" fill="#cb2323"/>
<path d="M2299.2 593.888V881.823H2209.25V593.888H2299.2ZM2203.93 519.643C2203.93 506.869 2208.54 496.402 2217.77 488.241C2226.99 480.08 2238.97 476 2253.69 476C2268.42 476 2280.39 480.08 2289.62 488.241C2298.85 496.402 2303.46 506.869 2303.46 519.643C2303.46 532.416 2298.85 542.883 2289.62 551.044C2280.39 559.205 2268.42 563.285 2253.69 563.285C2238.97 563.285 2226.99 559.205 2217.77 551.044C2208.54 542.883 2203.93 532.416 2203.93 519.643Z" fill="#cb2323"/>
<path d="M2476.17 817.956C2484.5 817.956 2491.6 816.448 2497.45 813.432C2503.49 810.238 2508.01 805.803 2511.03 800.126C2514.22 794.271 2515.73 787.264 2515.55 779.103H2599.91C2600.09 800.747 2594.76 819.73 2583.94 836.051C2573.3 852.195 2558.75 864.792 2540.3 873.839C2522.03 882.71 2501.36 887.145 2478.29 887.145C2455.76 887.145 2436.07 883.508 2419.22 876.234C2402.36 868.783 2388.26 858.493 2376.91 845.365C2365.73 832.06 2357.3 816.536 2351.62 798.795C2346.12 781.055 2343.38 761.806 2343.38 741.049V734.928C2343.38 714.171 2346.12 694.923 2351.62 677.182C2357.3 659.263 2365.73 643.74 2376.91 630.612C2388.26 617.306 2402.27 607.016 2418.95 599.743C2435.81 592.292 2455.41 588.566 2477.76 588.566C2501.71 588.566 2522.82 593.09 2541.1 602.138C2559.55 611.186 2574.01 624.314 2584.47 641.522C2594.94 658.731 2600.09 679.577 2599.91 704.059H2515.55C2515.73 695.366 2514.4 687.56 2511.56 680.641C2508.72 673.722 2504.28 668.222 2498.25 664.142C2492.4 659.884 2484.86 657.755 2475.63 657.755C2466.41 657.755 2458.96 659.796 2453.28 663.876C2447.6 667.956 2443.26 673.633 2440.24 680.907C2437.4 688.004 2435.45 696.164 2434.39 705.39C2433.5 714.615 2433.06 724.461 2433.06 734.928V741.049C2433.06 751.693 2433.5 761.717 2434.39 771.12C2435.45 780.345 2437.49 788.506 2440.51 795.602C2443.52 802.521 2447.87 808.021 2453.55 812.101C2459.22 816.004 2466.76 817.956 2476.17 817.956Z" fill="#cb2323"/>
<path d="M2789.91 593.888V656.159H2616.41V593.888H2789.91ZM2652.86 522.304H2742.54V787.885C2742.54 795.513 2743.43 801.457 2745.21 805.714C2746.98 809.795 2750 812.722 2754.25 814.496C2758.69 816.093 2764.54 816.891 2771.82 816.891C2776.96 816.891 2781.22 816.802 2784.59 816.625C2787.96 816.27 2791.15 815.827 2794.17 815.294V879.428C2786.54 881.911 2778.56 883.774 2770.22 885.016C2761.88 886.435 2753.01 887.145 2743.61 887.145C2724.45 887.145 2708.04 884.129 2694.38 878.097C2680.9 872.065 2670.61 862.574 2663.51 849.623C2656.41 836.672 2652.86 819.818 2652.86 799.062V522.304Z" fill="#cb2323"/>
<path d="M2920.31 593.888V881.823H2830.36V593.888H2920.31ZM2825.04 519.643C2825.04 506.869 2829.65 496.402 2838.88 488.241C2848.1 480.08 2860.08 476 2874.8 476C2889.53 476 2901.5 480.08 2910.73 488.241C2919.95 496.402 2924.57 506.869 2924.57 519.643C2924.57 532.416 2919.95 542.883 2910.73 551.044C2901.5 559.205 2889.53 563.285 2874.8 563.285C2860.08 563.285 2848.1 559.205 2838.88 551.044C2829.65 542.883 2825.04 532.416 2825.04 519.643Z" fill="#cb2323"/>
<path d="M2964.48 740.783V735.194C2964.48 714.083 2967.5 694.656 2973.53 676.916C2979.56 658.997 2988.43 643.474 3000.14 630.346C3011.85 617.217 3026.31 607.016 3043.52 599.743C3060.73 592.292 3080.6 588.566 3103.13 588.566C3125.84 588.566 3145.8 592.292 3163 599.743C3180.39 607.016 3194.94 617.217 3206.65 630.346C3218.36 643.474 3227.23 658.997 3233.26 676.916C3239.29 694.656 3242.31 714.083 3242.31 735.194V740.783C3242.31 761.717 3239.29 781.143 3233.26 799.062C3227.23 816.802 3218.36 832.326 3206.65 845.631C3194.94 858.76 3180.48 868.961 3163.27 876.234C3146.06 883.508 3126.19 887.145 3103.66 887.145C3081.13 887.145 3061.17 883.508 3043.79 876.234C3026.4 868.961 3011.85 858.76 3000.14 845.631C2988.43 832.326 2979.56 816.802 2973.53 799.062C2967.5 781.143 2964.48 761.717 2964.48 740.783ZM3054.16 735.194V740.783C3054.16 751.605 3054.96 761.717 3056.56 771.12C3058.16 780.522 3060.82 788.772 3064.54 795.868C3068.27 802.787 3073.32 808.198 3079.71 812.101C3086.1 816.004 3094.08 817.956 3103.66 817.956C3113.06 817.956 3120.87 816.004 3127.08 812.101C3133.47 808.198 3138.52 802.787 3142.25 795.868C3145.97 788.772 3148.63 780.522 3150.23 771.12C3151.83 761.717 3152.63 751.605 3152.63 740.783V735.194C3152.63 724.727 3151.83 714.881 3150.23 705.656C3148.63 696.253 3145.97 688.004 3142.25 680.907C3138.52 673.633 3133.47 667.956 3127.08 663.876C3120.69 659.796 3112.71 657.755 3103.13 657.755C3093.73 657.755 3085.83 659.796 3079.44 663.876C3073.24 667.956 3068.27 673.633 3064.54 680.907C3060.82 688.004 3058.16 696.253 3056.56 705.656C3054.96 714.881 3054.16 724.727 3054.16 735.194Z" fill="#cb2323"/>
<path d="M3370.31 655.36V881.823H3280.63V593.888H3364.72L3370.31 655.36ZM3359.66 728.009L3338.64 728.542C3338.64 706.543 3341.3 686.939 3346.62 669.73C3351.94 652.344 3359.48 637.619 3369.24 625.556C3379 613.492 3390.62 604.355 3404.1 598.146C3417.76 591.759 3432.93 588.566 3449.61 588.566C3462.91 588.566 3475.07 590.517 3486.07 594.42C3497.24 598.323 3506.82 604.621 3514.81 613.314C3522.97 622.007 3529.18 633.539 3533.43 647.909C3537.87 662.102 3540.09 679.665 3540.09 700.6V881.823H3449.87V700.333C3449.87 688.802 3448.28 680.02 3445.08 673.988C3441.89 667.779 3437.28 663.521 3431.25 661.215C3425.21 658.909 3417.85 657.755 3409.16 657.755C3399.93 657.755 3392.13 659.529 3385.74 663.078C3379.35 666.626 3374.21 671.593 3370.31 677.98C3366.58 684.189 3363.83 691.552 3362.06 700.067C3360.46 708.583 3359.66 717.897 3359.66 728.009Z" fill="#cb2323"/>
<path d="M490.74 22.6299C486.65 24.0599 481.94 26.3098 480.51 27.7398C477.24 30.3998 469.05 50.6498 458.83 81.9498C455.15 93.1998 451.67 103.02 450.85 103.63C450.24 104.45 437.14 105.47 422.01 106.29L394.4 107.52L376.6 72.1298C361.06 40.6298 358.19 36.1299 351.85 33.2699C347.96 31.2199 342.24 29.7898 339.37 29.7898C334.66 29.7898 262.87 63.1298 199.66 95.0398C161.41 114.06 160.8 117.34 184.93 167.45L201.5 201.81L190.45 213.47C184.52 219.81 176.13 229.42 171.84 234.74L164.07 244.15L128.89 231.88C89.82 218.38 80.41 217.36 71 226.15C65.27 231.67 65.89 230.24 33.36 323.92C6.56 401.44 6.16 403.28 15.56 414.94C19.24 419.65 27.63 423.33 56.88 433.55L93.7 446.44L95.13 474.87C95.95 494.92 95.74 503.51 94.11 504.12C83.48 508.02 27.44 537.48 24.37 540.75C22.32 543.21 20.07 549.34 19.66 554.46C18.64 563.05 20.68 568.17 54.84 638.74C74.89 680.26 92.68 716.06 94.11 718.51C97.59 723.62 108.63 729.35 115.79 729.35C118.45 729.35 130.72 724.44 143 718.51C155.27 712.37 171.02 705.01 178.18 701.74L190.86 696.01L202.72 707.05C209.06 713.19 218.27 721.37 223.17 725.26C229.72 730.37 231.76 733.44 231.15 736.51C230.54 738.76 225.01 755.74 218.67 774.14C208.44 803.8 207.42 808.3 209.26 815.05C210.28 819.34 213.56 824.66 216.21 827.32C223.37 834.07 376.17 886.84 388.64 886.84C403.78 886.84 408.48 880.09 422.8 838.16L434.87 802.98L451.44 802.77C460.64 802.56 473.12 801.95 479.26 801.13L490.51 799.7L507.9 834.47C527.74 874.15 532.85 879.88 547.79 878.04C552.7 877.43 584.4 863.11 626.75 842.66L697.53 808.09L668.08 777C651.92 760.02 622.67 730.77 603.24 712.16L568.06 678.62L554.15 685.37C536.56 693.96 514.06 701.32 491.56 706.23C467.63 711.34 417.72 711.14 393.38 706.02C339.99 694.57 292.13 667.98 256.13 629.52C151.8 518.66 166.94 341.11 288.44 249.88C440.01 136.16 655.4 218.18 694.26 404.73C703.26 447.48 699.17 499.44 683.83 541.57C680.35 550.77 677.69 558.96 677.69 559.77C677.69 561.81 747.03 627.48 783.44 660C798.37 673.29 811.67 683.73 813.1 683.32C818.21 681.28 821.28 673.5 848.9 594.55C872.63 526.84 876.31 514.37 875.49 506.39C873.85 492.48 867.92 488.39 827.62 474.48L792.64 462.41L791.41 438.89C790.59 426 789.37 413.32 788.75 410.87C787.73 406.58 791 404.53 824.14 388.37L860.76 370.37L864.65 360.76L868.74 350.94L863.83 339.28C861.17 332.73 843.58 295.92 824.76 257.46C788.55 183.62 787.33 181.78 772.39 179.73C765.84 178.91 759.71 181.37 731.28 195.27C712.87 204.48 696.71 211.84 695.48 211.84C694.25 211.84 686.89 205.5 678.91 197.93C670.93 190.36 661.73 182.18 658.66 179.93L652.73 175.84L665.21 140.04C672.16 120.4 677.69 102.2 677.69 99.5398C677.69 91.9698 671.55 80.9298 665.21 77.6498C658.66 74.3798 514.25 23.8499 504.64 21.6099C500.76 20.7899 495.24 21.1999 490.74 22.6299Z" fill="#cb2323"/>
<path d="M400.12 304.91C376.19 310.23 360.44 320.45 363.71 328.64C364.53 330.28 378.64 340.3 395.41 350.94C429.57 372.83 434.27 378.14 434.27 395.12C434.07 412.71 419.95 437.26 404.41 446.26C389.48 455.05 382.93 453.22 345.71 429.9C328.32 419.06 312.57 410.26 310.94 410.26C309.3 410.26 306.23 412.72 304.39 415.78C296.82 427.03 306.23 469.99 321.37 493.3C325.67 499.85 334.67 510.28 341.42 516.41C367.19 540.14 398.69 548.32 429.78 539.52L444.71 535.22L473.76 560.18C531.44 609.48 571.94 647.73 663.17 738.96L756.03 831.82L754.19 843.48C753.17 849.82 752.35 864.34 752.35 875.59C752.35 894.82 752.76 897.07 759.31 910.36C772.4 937.36 806.76 965.59 837.85 975.2C849.71 978.68 855.65 979.29 874.67 978.47C901.06 977.45 918.85 971.72 926.01 961.9C931.33 954.74 931.74 955.15 894.51 931.22C861.58 909.95 857.69 905.44 857.69 887.24C857.69 869.03 871.4 845.92 887.76 836.31C902.49 827.72 908.83 829.56 947.49 853.9C972.04 869.44 981.24 874.35 983.29 872.72C984.52 871.49 986.97 864.74 988.4 857.59C990.85 845.52 990.65 843.06 986.56 828.34C980.42 806.86 974.49 793.97 964.47 780.88C955.68 769.01 938.7 755.11 927.24 750.2C906.17 741.2 877.53 738.95 857.9 744.88L847.27 747.95L829.68 733.02C800.23 708.06 756.25 668.79 720.66 635.25C681.99 599.05 576.04 493.09 552.1 466.71L535.94 448.91L538.6 431.93C544.53 394.09 538.39 367.7 519.17 347.04C509.35 336.61 486.44 319.84 471.72 312.27C452.08 302.45 424.67 299.59 400.12 304.91Z" fill="#cb2323"/>
</svg>
