<svg width="1000" height="1000" viewBox="0 0 1000 1000" fill="none" xmlns="http://www.w3.org/2000/svg">
<path d="M490.74 22.63C486.65 24.06 481.94 26.31 480.51 27.74C477.24 30.4 469.05 50.65 458.83 81.95C455.15 93.2 451.67 103.02 450.85 103.63C450.24 104.45 437.14 105.47 422.01 106.29L394.4 107.52L376.6 72.1299C361.06 40.6299 358.19 36.13 351.85 33.27C347.96 31.22 342.24 29.79 339.37 29.79C334.66 29.79 262.87 63.13 199.66 95.04C161.41 114.06 160.8 117.34 184.93 167.45L201.5 201.81L190.45 213.47C184.52 219.81 176.13 229.42 171.84 234.74L164.07 244.15L128.89 231.88C89.82 218.38 80.41 217.36 71 226.15C65.27 231.67 65.89 230.24 33.36 323.92C6.56 401.44 6.16 403.28 15.56 414.94C19.24 419.65 27.63 423.33 56.88 433.55L93.7 446.44L95.13 474.87C95.95 494.92 95.74 503.51 94.11 504.12C83.48 508.02 27.44 537.48 24.37 540.75C22.32 543.21 20.07 549.34 19.66 554.46C18.64 563.05 20.68 568.17 54.84 638.74C74.89 680.26 92.68 716.06 94.11 718.51C97.59 723.62 108.63 729.35 115.79 729.35C118.45 729.35 130.72 724.44 143 718.51C155.27 712.37 171.02 705.01 178.18 701.74L190.86 696.01L202.72 707.05C209.06 713.19 218.27 721.37 223.17 725.26C229.72 730.37 231.76 733.44 231.15 736.51C230.54 738.76 225.01 755.74 218.67 774.14C208.44 803.8 207.42 808.3 209.26 815.05C210.28 819.34 213.56 824.66 216.21 827.32C223.37 834.07 376.17 886.84 388.64 886.84C403.78 886.84 408.48 880.09 422.8 838.16L434.87 802.98L451.44 802.77C460.64 802.56 473.12 801.95 479.26 801.13L490.51 799.7L507.9 834.47C527.74 874.15 532.85 879.88 547.79 878.04C552.7 877.43 584.4 863.11 626.75 842.66L697.53 808.09L668.08 777C651.92 760.02 622.67 730.77 603.24 712.16L568.06 678.62L554.15 685.37C536.56 693.96 514.06 701.32 491.56 706.23C467.63 711.34 417.72 711.14 393.38 706.02C339.99 694.57 292.13 667.98 256.13 629.52C151.8 518.66 166.94 341.11 288.44 249.88C440.01 136.16 655.4 218.18 694.26 404.73C703.26 447.48 699.17 499.44 683.83 541.57C680.35 550.77 677.69 558.96 677.69 559.77C677.69 561.81 747.03 627.48 783.44 660C798.37 673.29 811.67 683.73 813.1 683.32C818.21 681.28 821.28 673.5 848.9 594.55C872.63 526.84 876.31 514.37 875.49 506.39C873.85 492.48 867.92 488.39 827.62 474.48L792.64 462.41L791.41 438.89C790.59 426 789.37 413.32 788.75 410.87C787.73 406.58 791 404.53 824.14 388.37L860.76 370.37L864.65 360.76L868.74 350.94L863.83 339.28C861.17 332.73 843.58 295.92 824.76 257.46C788.55 183.62 787.33 181.78 772.39 179.73C765.84 178.91 759.71 181.37 731.28 195.27C712.87 204.48 696.71 211.84 695.48 211.84C694.25 211.84 686.89 205.5 678.91 197.93C670.93 190.36 661.73 182.18 658.66 179.93L652.73 175.84L665.21 140.04C672.16 120.4 677.69 102.2 677.69 99.54C677.69 91.97 671.55 80.93 665.21 77.65C658.66 74.38 514.25 23.85 504.64 21.61C500.76 20.79 495.24 21.2 490.74 22.63Z" fill="white"/>
<path d="M400.12 304.91C376.19 310.23 360.44 320.45 363.71 328.64C364.53 330.28 378.64 340.3 395.41 350.94C429.57 372.83 434.27 378.14 434.27 395.12C434.07 412.71 419.95 437.26 404.41 446.26C389.48 455.05 382.93 453.22 345.71 429.9C328.32 419.06 312.57 410.26 310.94 410.26C309.3 410.26 306.23 412.72 304.39 415.78C296.82 427.03 306.23 469.99 321.37 493.3C325.67 499.85 334.67 510.28 341.42 516.41C367.19 540.14 398.69 548.32 429.78 539.52L444.71 535.22L473.76 560.18C531.44 609.48 571.94 647.73 663.17 738.96L756.03 831.82L754.19 843.48C753.17 849.82 752.35 864.34 752.35 875.59C752.35 894.82 752.76 897.07 759.31 910.36C772.4 937.36 806.76 965.59 837.85 975.2C849.71 978.68 855.65 979.29 874.67 978.47C901.06 977.45 918.85 971.72 926.01 961.9C931.33 954.74 931.74 955.15 894.51 931.22C861.58 909.95 857.69 905.44 857.69 887.24C857.69 869.03 871.4 845.92 887.76 836.31C902.49 827.72 908.83 829.56 947.49 853.9C972.04 869.44 981.24 874.35 983.29 872.72C984.52 871.49 986.97 864.74 988.4 857.59C990.85 845.52 990.65 843.06 986.56 828.34C980.42 806.86 974.49 793.97 964.47 780.88C955.68 769.01 938.7 755.11 927.24 750.2C906.17 741.2 877.53 738.95 857.9 744.88L847.27 747.95L829.68 733.02C800.23 708.06 756.25 668.79 720.66 635.25C681.99 599.05 576.04 493.09 552.1 466.71L535.94 448.91L538.6 431.93C544.53 394.09 538.39 367.7 519.17 347.04C509.35 336.61 486.44 319.84 471.72 312.27C452.08 302.45 424.67 299.59 400.12 304.91Z" fill="white"/>
</svg>
